<svg width="180" height="64" viewBox="0 0 180 64" fill="none" xmlns="http://www.w3.org/2000/svg">
<g clip-path="url(#clip0_50_5)">
<g clip-path="url(#clip1_50_5)">
<path d="M24.3828 18.3479V16.4888C24.3828 13.7396 26.0969 11.6694 29.4395 11.6694C32.2546 11.6694 34.0478 13.4759 34.2324 15.546H32.9337C32.7161 14.0296 31.6085 12.7111 29.4263 12.7111C26.9408 12.7111 25.7475 14.2868 25.7475 16.4492V18.4007C25.7475 20.5631 26.9408 22.1388 29.4263 22.1388C31.6151 22.1388 32.7227 20.8268 32.9337 19.3105H34.2324C34.0412 21.3806 32.248 23.1672 29.4395 23.1672C26.0969 23.1672 24.3828 21.0971 24.3828 18.3479Z" fill="black"/>
<path d="M24.3828 18.3479V16.4888C24.3828 13.7396 26.0969 11.6694 29.4395 11.6694C32.2546 11.6694 34.0478 13.4759 34.2324 15.546H32.9337C32.7161 14.0296 31.6085 12.7111 29.4263 12.7111C26.9408 12.7111 25.7475 14.2868 25.7475 16.4492V18.4007C25.7475 20.5631 26.9408 22.1388 29.4263 22.1388C31.6151 22.1388 32.7227 20.8268 32.9337 19.3105H34.2324C34.0412 21.3806 32.248 23.1672 29.4395 23.1672C26.0969 23.1672 24.3828 21.0971 24.3828 18.3479Z" fill="black"/>
<path d="M43.0203 23.1672C39.5986 23.1672 37.9043 20.9719 37.9043 18.315V16.5349C37.9043 13.878 39.6052 11.6694 43.0203 11.6694C46.4222 11.6694 48.1231 13.878 48.1231 16.5349V18.315C48.1165 20.9719 46.4156 23.1672 43.0203 23.1672ZM46.765 18.3743V16.4756C46.765 14.3857 45.6047 12.7111 43.0203 12.7111C40.4161 12.7111 39.2558 14.3857 39.2558 16.4756V18.3743C39.2558 20.451 40.4161 22.1388 43.0203 22.1388C45.6047 22.1388 46.765 20.451 46.765 18.3743Z" fill="black"/>
<path d="M43.0203 23.1672C39.5986 23.1672 37.9043 20.9719 37.9043 18.315V16.5349C37.9043 13.878 39.6052 11.6694 43.0203 11.6694C46.4222 11.6694 48.1231 13.878 48.1231 16.5349V18.315C48.1165 20.9719 46.4156 23.1672 43.0203 23.1672ZM46.765 18.3743V16.4756C46.765 14.3857 45.6047 12.7111 43.0203 12.7111C40.4161 12.7111 39.2558 14.3857 39.2558 16.4756V18.3743C39.2558 20.451 40.4161 22.1388 43.0203 22.1388C45.6047 22.1388 46.765 20.451 46.765 18.3743Z" fill="black"/>
<path d="M52.4277 11.8936H57.2009C59.7325 11.8936 61.3148 13.4099 61.3148 15.3811C61.3148 17.3853 59.7391 18.9346 57.2009 18.9346H53.7858V22.9562H52.4343L52.4277 11.8936ZM57.0756 17.9062C59.0733 17.9062 59.9699 16.7392 59.9699 15.3811C59.9699 14.056 59.0733 12.922 57.0756 12.922H53.7858V17.9128H57.0756V17.9062Z" fill="black"/>
<path d="M52.4277 11.8936H57.2009C59.7325 11.8936 61.3148 13.4099 61.3148 15.3811C61.3148 17.3853 59.7391 18.9346 57.2009 18.9346H53.7858V22.9562H52.4343L52.4277 11.8936ZM57.0756 17.9062C59.0733 17.9062 59.9699 16.7392 59.9699 15.3811C59.9699 14.056 59.0733 12.922 57.0756 12.922H53.7858V17.9128H57.0756V17.9062Z" fill="black"/>
<path d="M64.9277 11.8936H72.9643V12.9154H66.2727V16.8315H72.4435V17.8798H66.2727V21.9344H72.9643V22.9562H64.9277V11.8936Z" fill="black"/>
<path d="M64.9277 11.8936H72.9643V12.9154H66.2727V16.8315H72.4435V17.8798H66.2727V21.9344H72.9643V22.9562H64.9277V11.8936Z" fill="black"/>
<path d="M77.1641 11.8936H78.4101L85.115 20.9718V11.8936H86.4533V22.9562H85.1611L78.4694 13.878V22.9562H77.1641V11.8936Z" fill="black"/>
<path d="M77.1641 11.8936H78.4101L85.115 20.9718V11.8936H86.4533V22.9562H85.1611L78.4694 13.878V22.9562H77.1641V11.8936Z" fill="black"/>
<path d="M91.4238 11.8936H92.7754V16.8579H99.2033V11.8936H100.542V22.9562H99.2033V17.9655H92.7754V22.9562H91.4238V11.8936Z" fill="black"/>
<path d="M91.4238 11.8936H92.7754V16.8579H99.2033V11.8936H100.542V22.9562H99.2033V17.9655H92.7754V22.9562H91.4238V11.8936Z" fill="black"/>
<path d="M114.519 22.9562H113.174L112.073 20.1345H106.45L105.342 22.9562H104.004L108.612 11.8936H109.957L114.519 22.9562ZM106.839 19.1588H111.691L109.239 13.0077L106.839 19.1588Z" fill="black"/>
<path d="M114.519 22.9562H113.174L112.073 20.1345H106.45L105.342 22.9562H104.004L108.612 11.8936H109.957L114.519 22.9562ZM106.839 19.1588H111.691L109.239 13.0077L106.839 19.1588Z" fill="black"/>
<path d="M125.732 15.526C125.686 13.9767 124.427 12.7174 122.258 12.7174C119.766 12.7174 118.605 14.2667 118.605 16.4819V18.3213C118.605 20.4903 119.687 22.1781 122.324 22.1781C124.499 22.1781 125.825 21.0705 125.825 18.9344V18.6444H122.442V17.6225H127.15V18.7894C127.15 21.3276 125.416 23.1736 122.324 23.1736C118.948 23.1736 117.254 20.9782 117.254 18.2949V16.5478C117.254 13.713 118.988 11.6758 122.212 11.6758C125.185 11.6758 126.978 13.3635 127.024 15.5326H125.732V15.526Z" fill="black"/>
<path d="M125.732 15.526C125.686 13.9767 124.427 12.7174 122.258 12.7174C119.766 12.7174 118.605 14.2667 118.605 16.4819V18.3213C118.605 20.4903 119.687 22.1781 122.324 22.1781C124.499 22.1781 125.825 21.0705 125.825 18.9344V18.6444H122.442V17.6225H127.15V18.7894C127.15 21.3276 125.416 23.1736 122.324 23.1736C118.948 23.1736 117.254 20.9782 117.254 18.2949V16.5478C117.254 13.713 118.988 11.6758 122.212 11.6758C125.185 11.6758 126.978 13.3635 127.024 15.5326H125.732V15.526Z" fill="black"/>
<path d="M131.297 11.8936H139.314V12.9154H132.655V16.8315H138.819V17.8798H132.655V21.9344H139.327V22.9562H131.297V11.8936Z" fill="black"/>
<path d="M131.297 11.8936H139.314V12.9154H132.655V16.8315H138.819V17.8798H132.655V21.9344H139.327V22.9562H131.297V11.8936Z" fill="black"/>
<path d="M143.17 11.8936H144.449L151.154 20.9718V11.8936H152.446V22.9562H151.193L144.502 13.878V22.9562H143.17V11.8936Z" fill="black"/>
<path d="M143.17 11.8936H144.449L151.154 20.9718V11.8936H152.446V22.9562H151.193L144.502 13.878V22.9562H143.17V11.8936Z" fill="black"/>
<path d="M23.0833 54.1861C20.5517 54.9377 18.6595 55.2343 16.4048 55.2343C12.904 55.2343 10.2405 54.2454 8.00558 52.0962C6.02116 50.1249 4.95312 47.5142 4.95312 44.5936C4.95312 38.4096 9.64719 34.21 16.4971 34.21C18.5672 34.21 20.1561 34.4209 23.0899 35.2318V39.8995H21.2241L20.7297 37.1503L20.2879 36.6031C18.7254 35.99 17.8684 35.8186 16.5301 35.8186C11.4734 35.8186 8.38137 39.1743 8.38137 44.6266C8.38137 50.2172 11.6448 53.6323 17.0575 53.6323C18.0991 53.6323 18.8573 53.573 19.9649 53.2367L20.4923 52.7555L21.29 49.3997H23.0833V54.1861Z" fill="black"/>
<path d="M23.0833 54.1861C20.5517 54.9377 18.6595 55.2343 16.4048 55.2343C12.904 55.2343 10.2405 54.2454 8.00558 52.0962C6.02116 50.1249 4.95312 47.5142 4.95312 44.5936C4.95312 38.4096 9.64719 34.21 16.4971 34.21C18.5672 34.21 20.1561 34.4209 23.0899 35.2318V39.8995H21.2241L20.7297 37.1503L20.2879 36.6031C18.7254 35.99 17.8684 35.8186 16.5301 35.8186C11.4734 35.8186 8.38137 39.1743 8.38137 44.6266C8.38137 50.2172 11.6448 53.6323 17.0575 53.6323C18.0991 53.6323 18.8573 53.573 19.9649 53.2367L20.4923 52.7555L21.29 49.3997H23.0833V54.1861Z" fill="black"/>
<path d="M39.1229 34.3223L47.1067 53.2765L49.1044 53.6325V54.872H41.5622V53.6325L43.6192 53.4809L43.8499 53.059L41.4501 47.2771H33.5915L31.2313 53.059L31.5741 53.4809L33.7366 53.6325V54.872H27.2031V53.6325L29.1282 53.2765L36.9143 34.3223H39.1229ZM34.1651 45.8794H40.8832L37.4615 37.5066L34.1651 45.8794Z" fill="black"/>
<path d="M39.1229 34.3223L47.1067 53.2765L49.1044 53.6325V54.872H41.5622V53.6325L43.6192 53.4809L43.8499 53.059L41.4501 47.2771H33.5915L31.2313 53.059L31.5741 53.4809L33.7366 53.6325V54.872H27.2031V53.6325L29.1282 53.2765L36.9143 34.3223H39.1229ZM34.1651 45.8794H40.8832L37.4615 37.5066L34.1651 45.8794Z" fill="black"/>
<path d="M52.7703 53.6325L54.6624 53.4809L55.236 53.0589V36.399L54.6624 35.9572L52.5 35.8122V34.5728H60.0883C66.5492 34.5728 69.3512 36.366 69.3512 40.414C69.3512 44.7454 66.1932 47.2573 60.7674 47.2573C59.996 47.2573 59.3895 47.2243 58.2159 47.1056V53.0589L58.7895 53.4809L61.1365 53.6325V54.8719H52.7637L52.7703 53.6325ZM58.2159 45.6486C59.4883 45.7673 59.996 45.8003 60.5893 45.8003C64.1692 45.8003 66.2525 43.9543 66.2525 40.6909C66.2525 37.5395 64.2088 35.9638 60.141 35.9638C59.6729 35.9638 59.4422 35.9638 58.2159 36.0298V45.6486Z" fill="black"/>
<path d="M52.7703 53.6325L54.6624 53.4809L55.236 53.0589V36.399L54.6624 35.9572L52.5 35.8122V34.5728H60.0883C66.5492 34.5728 69.3512 36.366 69.3512 40.414C69.3512 44.7454 66.1932 47.2573 60.7674 47.2573C59.996 47.2573 59.3895 47.2243 58.2159 47.1056V53.0589L58.7895 53.4809L61.1365 53.6325V54.8719H52.7637L52.7703 53.6325ZM58.2159 45.6486C59.4883 45.7673 59.996 45.8003 60.5893 45.8003C64.1692 45.8003 66.2525 43.9543 66.2525 40.6909C66.2525 37.5395 64.2088 35.9638 60.141 35.9638C59.6729 35.9638 59.4422 35.9638 58.2159 36.0298V45.6486Z" fill="black"/>
<path d="M82.9456 34.3223L90.9097 53.2765L92.8941 53.6325V54.872H85.3652V53.6325L87.4485 53.4809L87.6792 53.059L85.2795 47.2771H77.4209L75.0673 53.059L75.3837 53.4809L77.5725 53.6325V54.872H71.0391V53.6325L72.9642 53.2765L80.7436 34.3223H82.9456ZM77.9813 45.8794H84.7125L81.2711 37.5066L77.9813 45.8794Z" fill="black"/>
<path d="M82.9456 34.3223L90.9097 53.2765L92.8941 53.6325V54.872H85.3652V53.6325L87.4485 53.4809L87.6792 53.059L85.2795 47.2771H77.4209L75.0673 53.059L75.3837 53.4809L77.5725 53.6325V54.872H71.0391V53.6325L72.9642 53.2765L80.7436 34.3223H82.9456ZM77.9813 45.8794H84.7125L81.2711 37.5066L77.9813 45.8794Z" fill="black"/>
<path d="M113.583 54.1861C111.031 54.9377 109.126 55.2343 106.845 55.2343C103.37 55.2343 100.746 54.2454 98.4983 52.0962C96.4611 50.1249 95.4062 47.5142 95.4062 44.5936C95.4062 38.4096 100.12 34.21 106.963 34.21C109.007 34.21 110.642 34.4209 113.583 35.2318V39.8995H111.69L111.183 37.1503L110.754 36.6031C109.179 35.99 108.302 35.8186 107.003 35.8186C101.94 35.8186 98.8477 39.1743 98.8477 44.6266C98.8477 50.2172 102.118 53.6323 107.544 53.6323C108.539 53.6323 109.324 53.573 110.405 53.2367L110.945 52.7555L111.763 49.3997H113.576L113.583 54.1861Z" fill="black"/>
<path d="M113.583 54.1861C111.031 54.9377 109.126 55.2343 106.845 55.2343C103.37 55.2343 100.746 54.2454 98.4983 52.0962C96.4611 50.1249 95.4062 47.5142 95.4062 44.5936C95.4062 38.4096 100.12 34.21 106.963 34.21C109.007 34.21 110.642 34.4209 113.583 35.2318V39.8995H111.69L111.183 37.1503L110.754 36.6031C109.179 35.99 108.302 35.8186 107.003 35.8186C101.94 35.8186 98.8477 39.1743 98.8477 44.6266C98.8477 50.2172 102.118 53.6323 107.544 53.6323C108.539 53.6323 109.324 53.573 110.405 53.2367L110.945 52.7555L111.763 49.3997H113.576L113.583 54.1861Z" fill="black"/>
<path d="M119.186 53.6327L121.328 53.4877L121.862 53.0658V36.3992L121.328 35.9575L119.186 35.8124V34.5796H127.637V35.8124L125.501 35.9575L124.954 36.3992V53.0658L125.501 53.4877L127.637 53.6327V54.8722H119.186V53.6327Z" fill="black"/>
<path d="M119.186 53.6327L121.328 53.4877L121.862 53.0658V36.3992L121.328 35.9575L119.186 35.8124V34.5796H127.637V35.8124L125.501 35.9575L124.954 36.3992V53.0658L125.501 53.4877L127.637 53.6327V54.8722H119.186V53.6327Z" fill="black"/>
<path d="M150.963 34.5796V39.2275H149.13L148.662 36.4256L148.194 35.9575H143.098V53.0658L143.684 53.4877L145.9 53.6327V54.8722H137.21V53.6327L139.439 53.4877L140.012 53.0658V35.9575H134.936L134.468 36.4256L134 39.2275H132.16V34.5796H150.963Z" fill="black"/>
<path d="M150.963 34.5796V39.2275H149.13L148.662 36.4256L148.194 35.9575H143.098V53.0658L143.684 53.4877L145.9 53.6327V54.8722H137.21V53.6327L139.439 53.4877L140.012 53.0658V35.9575H134.936L134.468 36.4256L134 39.2275H132.16V34.5796H150.963Z" fill="black"/>
<path d="M161.492 34.5796V35.8124L159.573 35.9575L159.25 36.3069L164.353 44.627L169.924 36.5442L169.634 36.1157L167.617 35.8124V34.5796H174.387V35.8124L172.35 36.1816L165.441 46.2554V53.0658L165.982 53.4877L168.23 53.6327V54.8722H159.62V53.6327L161.881 53.4877L162.421 53.0658V46.6378L155.789 36.0893L153.752 35.8124V34.5796H161.492Z" fill="black"/>
<path d="M161.492 34.5796V35.8124L159.573 35.9575L159.25 36.3069L164.353 44.627L169.924 36.5442L169.634 36.1157L167.617 35.8124V34.5796H174.387V35.8124L172.35 36.1816L165.441 46.2554V53.0658L165.982 53.4877L168.23 53.6327V54.8722H159.62V53.6327L161.881 53.4877L162.421 53.0658V46.6378L155.789 36.0893L153.752 35.8124V34.5796H161.492Z" fill="black"/>
</g>
</g>
<defs>
<clipPath id="clip0_50_5">
<rect width="180" height="63.96" fill="white"/>
</clipPath>
<clipPath id="clip1_50_5">
<rect width="180" height="63.96" fill="white"/>
</clipPath>
</defs>
</svg>
