<?xml version="1.0" encoding="UTF-8"?><svg id="Layer_1" xmlns="http://www.w3.org/2000/svg" viewBox="0 0 273 97"><defs><style>.cls-1{fill:#fff;}</style></defs><path class="cls-1" d="M37.45,25.7v-2.8c0-4.2,2.6-7.3,7.7-7.3,4.3,0,7,2.7,7.3,5.9h-2c-.3-2.3-2-4.3-5.3-4.3-3.8,0-5.6,2.4-5.6,5.7v3c0,3.3,1.8,5.7,5.6,5.7,3.3,0,5-2,5.3-4.3h2c-.3,3.1-3,5.8-7.3,5.8-5.1-.1-7.7-3.2-7.7-7.4"/><path class="cls-1" d="M65.65,33c-5.2,0-7.8-3.3-7.8-7.4v-2.6c0-4,2.6-7.4,7.8-7.4s7.7,3.4,7.7,7.4v2.7c.1,4-2.5,7.3-7.7,7.3m5.7-7.2v-2.9c0-3.2-1.8-5.7-5.7-5.7s-5.7,2.5-5.7,5.7v2.9c0,3.1,1.8,5.7,5.7,5.7s5.7-2.6,5.7-5.7"/><path class="cls-1" d="M79.95,15.9h7.2c3.8,0,6.2,2.3,6.2,5.3s-2.4,5.4-6.2,5.4h-5.2v6.1h-2.1l.1-16.8h0Zm7.1,9.1c3,0,4.4-1.8,4.4-3.8s-1.4-3.7-4.4-3.7h-5v7.6l5-.1h0Z"/><polygon class="cls-1" points="98.95 15.9 111.15 15.9 111.15 17.5 100.95 17.5 100.95 23.4 110.35 23.4 110.35 25 100.95 25 100.95 31.2 111.15 31.2 111.15 32.7 98.95 32.7 98.95 15.9"/><polygon class="cls-1" points="117.45 15.9 119.35 15.9 129.55 29.7 129.55 15.9 131.55 15.9 131.55 32.7 129.65 32.7 119.45 18.9 119.45 32.7 117.45 32.7 117.45 15.9"/><polygon class="cls-1" points="139.15 15.9 141.15 15.9 141.15 23.5 150.95 23.5 150.95 15.9 152.95 15.9 152.95 32.7 150.95 32.7 150.95 25.1 141.15 25.1 141.15 32.7 139.15 32.7 139.15 15.9"/><path class="cls-1" d="M174.15,32.7h-2l-1.7-4.3h-8.5l-1.7,4.3h-2l7-16.8h2l6.9,16.8Zm-11.7-5.8h7.4l-3.7-9.3-3.7,9.3Z"/><path class="cls-1" d="M191.15,21.4c-.1-2.4-2-4.3-5.3-4.3-3.8,0-5.5,2.4-5.5,5.7v2.8c0,3.3,1.6,5.8,5.6,5.8,3.3,0,5.3-1.7,5.3-4.9v-.4h-5.1v-1.5h7.1v1.8c0,3.8-2.6,6.7-7.3,6.7-5.1,0-7.7-3.3-7.7-7.4v-2.7c0-4.3,2.6-7.4,7.5-7.4,4.5,0,7.2,2.6,7.3,5.9l-1.9-.1h0Z"/><polygon class="cls-1" points="199.55 15.9 211.75 15.9 211.75 17.5 201.65 17.5 201.65 23.4 211.05 23.4 211.05 25 201.65 25 201.65 31.2 211.75 31.2 211.75 32.7 199.55 32.7 199.55 15.9"/><polygon class="cls-1" points="217.55 15.9 219.55 15.9 229.75 29.7 229.75 15.9 231.65 15.9 231.65 32.7 229.75 32.7 219.65 18.9 219.65 32.7 217.55 32.7 217.55 15.9"/><path class="cls-1" d="M35.45,80.1c-3.8,1.1-6.7,1.6-10.1,1.6-5.3,0-9.4-1.5-12.7-4.8-3-3-4.6-6.9-4.6-11.4,0-9.4,7.1-15.8,17.5-15.8,3.1,0,5.6,.3,10,1.5v7.1h-2.8l-.8-4.2-.7-.8c-2.4-.9-3.7-1.2-5.7-1.2-7.7,0-12.4,5.1-12.4,13.4s4.9,13.7,13.2,13.7c1.6,0,2.7-.1,4.4-.6l.8-.7,1.2-5.1h2.7v7.3Z"/><path class="cls-1" d="M59.75,49.9l12.1,28.8,3,.5v1.9h-11.4v-1.9l3.1-.2,.3-.6-3.6-8.8h-11.9l-3.6,8.8,.5,.6,3.3,.2v1.9h-9.9v-1.9l2.9-.5,11.9-28.8h3.3Zm-7.5,17.6h10.2l-5.2-12.7-5,12.7Z"/><path class="cls-1" d="M80.45,79.2l2.9-.2,.9-.6v-25.3l-.9-.7-3.3-.2v-1.9h11.5c9.8,0,14.1,2.7,14.1,8.9,0,6.6-4.8,10.4-13,10.4-1.2,0-2.1-.1-3.9-.2v9l.9,.6,3.6,.2v1.9h-12.8v-1.9h0Zm8.3-12.1c1.9,.2,2.7,.2,3.6,.2,5.4,0,8.6-2.8,8.6-7.8s-3.1-7.2-9.3-7.2c-.7,0-1.1,0-2.9,.1,0,.1,0,14.7,0,14.7Z"/><path class="cls-1" d="M126.25,49.9l12.1,28.8,3,.5v1.9h-11.4v-1.9l3.2-.2,.4-.6-3.6-8.8h-11.9l-3.6,8.8,.5,.6,3.3,.2v1.9h-9.9v-1.9l2.9-.5,11.8-28.8c-.1,0,3.2,0,3.2,0Zm-7.5,17.6h10.2l-5.2-12.7-5,12.7Z"/><path class="cls-1" d="M172.75,80.1c-3.9,1.1-6.8,1.6-10.2,1.6-5.3,0-9.2-1.5-12.7-4.8-3.1-3-4.7-6.9-4.7-11.4,0-9.4,7.1-15.8,17.5-15.8,3.1,0,5.6,.3,10,1.5v7.1h-2.9l-.8-4.2-.6-.8c-2.4-.9-3.7-1.2-5.7-1.2-7.7,0-12.4,5.1-12.4,13.4s5,13.7,13.2,13.7c1.5,0,2.7-.1,4.3-.6l.8-.7,1.2-5.1h2.8l.2,7.3h0Z"/><polygon class="cls-1" points="181.25 79.2 184.45 79 185.25 78.4 185.25 53.1 184.45 52.4 181.25 52.2 181.25 50.3 194.05 50.3 194.05 52.2 190.85 52.4 189.95 53.1 189.95 78.4 190.85 79 194.05 79.2 194.05 81.1 181.25 81.1 181.25 79.2"/><polygon class="cls-1" points="229.45 50.3 229.45 57.4 226.65 57.4 225.95 53.1 225.25 52.4 217.45 52.4 217.45 78.4 218.35 79 221.75 79.2 221.75 81.1 208.55 81.1 208.55 79.2 211.95 79 212.85 78.4 212.85 52.4 205.15 52.4 204.35 53.1 203.65 57.4 200.85 57.4 200.85 50.3 229.45 50.3"/><polygon class="cls-1" points="245.35 50.3 245.35 52.2 242.45 52.4 241.95 53 249.75 65.6 258.15 53.3 257.75 52.7 254.65 52.2 254.65 50.3 264.95 50.3 264.95 52.2 261.85 52.8 251.35 68 251.35 78.4 252.25 79 255.65 79.2 255.65 81.1 242.55 81.1 242.55 79.2 245.95 79 246.85 78.4 246.85 68.6 236.75 52.6 233.65 52.2 233.65 50.3 245.35 50.3"/></svg>