<?xml version="1.0" encoding="utf-8"?>
<!-- Generator: Adobe Illustrator 27.0.0, SVG Export Plug-In . SVG Version: 6.00 Build 0)  -->
<svg version="1.1" id="Layer_1" xmlns="http://www.w3.org/2000/svg" xmlns:xlink="http://www.w3.org/1999/xlink" x="0px" y="0px"
	 viewBox="0 0 499.5 194.6" style="enable-background:new 0 0 499.5 194.6;" xml:space="preserve">
<style type="text/css">
	.st0{fill:#FFFFFF;}
</style>
<g>
	<g>
		<g>
			<polygon class="st0" points="185.5,13.9 207.1,13.9 207.1,16.7 189.1,16.7 189.1,27.2 205.7,27.2 205.7,30 189.1,30 189.1,40.9 
				207.1,40.9 207.1,43.7 185.5,43.7 			"/>
		</g>
		<g>
			<polygon class="st0" points="218.4,13.9 221.8,13.9 239.8,38.4 239.8,13.9 243.3,13.9 243.3,43.7 239.9,43.7 221.9,19.3 
				221.9,43.7 218.4,43.7 			"/>
		</g>
		<g>
			<polygon class="st0" points="256.8,13.9 260.4,13.9 260.4,27.3 277.7,27.3 277.7,13.9 281.4,13.9 281.4,43.7 277.7,43.7 
				277.7,30.3 260.4,30.3 260.4,43.7 256.8,43.7 			"/>
		</g>
		<g>
			<path class="st0" d="M318.9,43.7h-3.6l-3-7.6h-15.1l-2.9,7.6h-3.6L302.9,14h3.6L318.9,43.7z M298.2,33.5h13L304.8,17L298.2,33.5z
				"/>
		</g>
		<g>
			<polygon class="st0" points="364,13.9 385.6,13.9 385.6,16.7 367.7,16.7 367.7,27.2 384.3,27.2 384.3,30 367.7,30 367.7,40.9 
				385.7,40.9 385.7,43.7 364,43.7 			"/>
		</g>
		<g>
			<polygon class="st0" points="396,13.9 399.4,13.9 417.4,38.4 417.4,13.9 421,13.9 421,43.7 417.6,43.7 399.6,19.3 399.6,43.7 
				396,43.7 			"/>
		</g>
		<g>
			<path class="st0" d="M116.1,74.3l21.5,50.9l5.4,1v3.3h-20.3v-3.3l5.6-0.4l0.6-1.1l-6.5-15.5h-21.1l-6.3,15.5l0.9,1.1l5.8,0.4v3.3
				H84v-3.3l5.2-1l20.9-50.9H116.1z M102.7,105.4h18.1l-9.2-22.5L102.7,105.4z"/>
		</g>
		<g>
			<path class="st0" d="M234,74.3l21.5,50.9l5.4,1v3.3h-20.3v-3.3l5.6-0.4l0.6-1.1l-6.4-15.5h-21.1l-6.3,15.5l0.9,1.1l5.8,0.4v3.3
				h-17.5v-3.3l5.2-1l20.9-50.9H234z M220.6,105.4h18.1l-9.2-22.5L220.6,105.4z"/>
		</g>
		<g>
			<polygon class="st0" points="331.5,126.3 337.2,125.9 338.7,124.7 338.7,79.9 337.2,78.7 331.5,78.3 331.5,75 354.2,75 
				354.2,78.3 348.5,78.7 346.9,79.9 346.9,124.7 348.5,125.9 354.2,126.3 354.2,129.6 331.5,129.6 			"/>
		</g>
		<g>
			<polygon class="st0" points="416.9,75 416.9,87.5 412,87.5 410.8,80 409.5,78.7 395.8,78.7 395.8,124.7 397.3,125.9 403.4,126.3 
				403.4,129.6 380,129.6 380,126.3 386,125.9 387.5,124.7 387.5,78.7 373.8,78.7 372.5,80 371.3,87.5 366.4,87.5 366.4,75 			"/>
		</g>
		<g>
			<polygon class="st0" points="445.2,75 445.2,78.3 440.1,78.7 439.2,79.6 452.9,102 468,80.3 467.2,79.1 461.7,78.3 461.7,75 
				480,75 480,78.3 474.5,79.3 455.9,106.4 455.9,124.7 457.3,125.9 463.4,126.3 463.4,129.6 440.2,129.6 440.2,126.3 446.3,125.9 
				447.7,124.7 447.7,107.5 429.9,79.1 424.5,78.3 424.5,75 			"/>
		</g>
		<g>
			<path class="st0" d="M76.4,31.3v-5c0-7.4,4.6-13,13.6-13c7.6,0,12.4,4.8,12.9,10.4h-3.5c-0.6-4.1-3.6-7.6-9.5-7.6
				c-6.7,0-9.9,4.3-9.9,10.1v5.3c0,5.8,3.2,10.1,9.9,10.1c5.9,0,8.9-3.6,9.5-7.6h3.5c-0.5,5.6-5.3,10.4-12.9,10.4
				C81,44.3,76.4,38.7,76.4,31.3"/>
		</g>
		<g>
			<path class="st0" d="M126.5,44.3c-9.2,0-13.7-5.9-13.7-13.1v-4.8c0-7.2,4.6-13.1,13.7-13.1s13.7,5.9,13.7,13.1v4.8
				C140.3,38.4,135.7,44.3,126.5,44.3 M136.6,31.4v-5.1c0-5.6-3.1-10.2-10.1-10.2c-7,0-10.1,4.5-10.1,10.2v5.1
				c0,5.6,3.1,10.2,10.1,10.2C133.5,41.5,136.6,37,136.6,31.4"/>
		</g>
		<g>
			<path class="st0" d="M151.9,13.9h12.8c6.9,0,11.1,4.1,11.1,9.4s-4.3,9.5-11.1,9.5h-9.2v10.8h-3.7L151.9,13.9L151.9,13.9z
				 M164.3,30.1c5.4,0,7.8-3.1,7.8-6.8c0-3.6-2.4-6.7-7.8-6.7h-8.8v13.4H164.3z"/>
		</g>
		<g>
			<path class="st0" d="M316.3,127.7c-6.8,2-11.9,2.9-18,2.9c-9.4,0-16.6-2.7-22.6-8.5c-5.4-5.3-8.2-12.3-8.2-20.2
				c0-16.6,12.6-27.9,31.1-27.9c5.6,0,9.8,0.6,17.7,2.8v12.5h-5l-1.3-7.4l-1.2-1.5c-4.2-1.6-6.5-2.1-10.1-2.1
				c-13.6,0-21.9,9-21.9,23.7c0,15.1,8.8,24.2,23.4,24.2c2.8,0,4.8-0.2,7.8-1.1l1.4-1.3l2.1-9h4.8L316.3,127.7L316.3,127.7z"/>
		</g>
		<g>
			<path class="st0" d="M72.9,127.7c-6.8,2-11.9,2.9-18,2.9c-9.4,0-16.6-2.7-22.6-8.5c-5.4-5.3-8.2-12.3-8.2-20.2
				C24.1,85.3,36.7,74,55.2,74c5.6,0,9.8,0.6,17.7,2.8v12.5h-5l-1.3-7.4l-1.2-1.5c-4.2-1.6-6.5-2.1-10.1-2.1
				c-13.6,0-21.9,9-21.9,23.7c0,15.1,8.8,24.2,23.4,24.2c2.8,0,4.8-0.2,7.8-1.1l1.4-1.3l2.1-9h4.8L72.9,127.7L72.9,127.7z"/>
		</g>
		<g>
			<path class="st0" d="M349.1,23.7c-0.1-4.2-3.5-7.6-9.4-7.6c-6.7,0-9.8,4.2-9.8,10.2v4.9c0,5.9,2.9,10.4,10,10.4
				c5.8,0,9.4-3,9.4-8.8v-0.8h-9.2v-2.8h12.7v3.2c0,6.8-4.6,11.8-13,11.8c-9.1,0-13.6-5.9-13.6-13.2v-4.7c0-7.6,4.7-13,13.4-13
				c8,0,12.8,4.5,12.9,10.4C352.5,23.7,349.1,23.7,349.1,23.7z"/>
		</g>
		<g>
			<path class="st0" d="M152.8,126.3l5.1-0.4l1.5-1.1V79.9l-1.5-1.1l-5.8-0.4V75h20.4c17.4,0,24.9,4.8,24.9,15.7
				c0,11.6-8.5,18.4-23.1,18.4c-2.1,0-3.7-0.1-6.8-0.4v16l1.5,1.1l6.3,0.4v3.3h-22.6V126.3z M167.4,104.8c3.4,0.3,4.7,0.4,6.3,0.4
				c9.7,0,15.2-5,15.2-13.7c0-8.5-5.5-12.7-16.4-12.7c-1.3,0-1.9,0-5.2,0.2L167.4,104.8L167.4,104.8z"/>
		</g>
	</g>
</g>
<g>
	<path class="st0" d="M130.1,160.8h2v17.8h-2V160.8z"/>
	<path class="st0" d="M138.6,178.6h-2v-12.5h1.9v2.4c0.3-0.9,0.9-1.6,1.7-2c0.8-0.5,1.8-0.7,2.9-0.7c1.5,0,2.7,0.5,3.6,1.6
		c0.9,1.1,1.4,2.4,1.4,4.1v7.2h-2v-6.8c0-1.3-0.3-2.3-0.9-3.1c-0.6-0.8-1.5-1.1-2.7-1.1c-1.2,0-2.1,0.4-2.9,1.2
		c-0.7,0.8-1.1,1.8-1.1,3V178.6z"/>
	<path class="st0" d="M152.9,175.1c0.1,0.8,0.5,1.4,1,1.8c0.5,0.4,1.2,0.6,2.1,0.6c0.8,0,1.5-0.2,2-0.6c0.5-0.4,0.8-0.9,0.8-1.6
		c0-0.5-0.2-0.9-0.5-1.3c-0.3-0.3-0.8-0.6-1.4-0.8l-2-0.6c-2.1-0.6-3.2-1.7-3.2-3.4c0-1,0.4-1.8,1.2-2.5c0.8-0.6,1.8-0.9,3-0.9
		c1.2,0,2.2,0.3,2.9,0.9c0.7,0.6,1.1,1.5,1.3,2.6h-1.7c-0.1-0.6-0.3-1.1-0.7-1.5c-0.4-0.4-1-0.6-1.7-0.6c-0.7,0-1.3,0.2-1.7,0.5
		c-0.4,0.3-0.6,0.8-0.6,1.4c0,0.5,0.1,0.9,0.4,1.2c0.3,0.2,0.8,0.5,1.5,0.7l2.3,0.7c1,0.3,1.7,0.7,2.2,1.3c0.5,0.5,0.7,1.3,0.7,2.1
		c0,1.1-0.5,2-1.4,2.8c-0.9,0.7-2,1.1-3.3,1.1c-1.3,0-2.4-0.3-3.2-1c-0.9-0.7-1.4-1.6-1.6-2.9H152.9z"/>
	<path class="st0" d="M165.7,183.9h-2v-17.8h1.9v2.5c0.4-0.8,1.1-1.4,2-2c0.9-0.6,2-0.8,3.2-0.8c1.3,0,2.4,0.3,3.4,0.9
		c1,0.6,1.7,1.4,2.3,2.4c0.5,1,0.8,2.1,0.8,3.2c0,1.2-0.3,2.2-0.8,3.2c-0.5,1-1.3,1.8-2.3,2.4c-1,0.6-2.1,0.9-3.4,0.9
		c-1.2,0-2.3-0.3-3.2-0.8c-0.9-0.6-1.6-1.2-1.9-2V183.9z M173.9,175.9c0.9-1,1.3-2.1,1.3-3.5c0-1.4-0.4-2.5-1.3-3.5
		c-0.9-1-2-1.4-3.4-1.4c-0.6,0-1.2,0.1-1.8,0.3c-0.6,0.2-1.1,0.5-1.5,0.9c-0.5,0.4-0.8,0.9-1.1,1.6c-0.3,0.6-0.4,1.3-0.4,2.1
		c0,1,0.2,1.9,0.7,2.7c0.5,0.8,1.1,1.3,1.8,1.7c0.7,0.4,1.5,0.6,2.3,0.6C171.9,177.3,173.1,176.8,173.9,175.9z"/>
	<path class="st0" d="M180.5,162.7c-0.2-0.2-0.4-0.5-0.4-0.9c0-0.4,0.1-0.7,0.4-0.9c0.2-0.2,0.6-0.4,0.9-0.4c0.4,0,0.7,0.1,0.9,0.4
		s0.4,0.5,0.4,0.9c0,0.4-0.1,0.7-0.4,0.9c-0.2,0.2-0.6,0.4-0.9,0.4C181.1,163.1,180.8,163,180.5,162.7z M180.5,178.6v-12.5h2v12.5
		H180.5z"/>
	<path class="st0" d="M193.5,167.8H193c-1.4,0-2.4,0.4-3.2,1.3c-0.8,0.9-1.2,2-1.2,3.5v6h-2v-12.5h1.9v3.1c0.3-1.1,0.9-1.9,1.8-2.4
		c0.9-0.5,2-0.8,3.3-0.8V167.8z"/>
	<path class="st0" d="M196.1,162.7c-0.2-0.2-0.4-0.5-0.4-0.9c0-0.4,0.1-0.7,0.4-0.9c0.2-0.2,0.6-0.4,0.9-0.4c0.4,0,0.7,0.1,0.9,0.4
		s0.4,0.5,0.4,0.9c0,0.4-0.1,0.7-0.4,0.9c-0.2,0.2-0.6,0.4-0.9,0.4C196.7,163.1,196.4,163,196.1,162.7z M196.1,178.6v-12.5h2v12.5
		H196.1z"/>
	<path class="st0" d="M204.2,178.6h-2v-12.5h1.9v2.4c0.3-0.9,0.9-1.6,1.7-2c0.8-0.5,1.8-0.7,2.9-0.7c1.5,0,2.7,0.5,3.6,1.6
		c0.9,1.1,1.4,2.4,1.4,4.1v7.2h-2v-6.8c0-1.3-0.3-2.3-0.9-3.1c-0.6-0.8-1.5-1.1-2.7-1.1c-1.2,0-2.1,0.4-2.9,1.2
		c-0.7,0.8-1.1,1.8-1.1,3V178.6z"/>
	<path class="st0" d="M230.1,166.1v12.4c0,1.6-0.6,3-1.9,4.1s-2.8,1.6-4.7,1.6c-1.5,0-2.8-0.3-4-1c-1.2-0.7-2-1.7-2.5-3h1.9
		c0.4,0.8,1,1.4,1.8,1.9c0.8,0.4,1.7,0.7,2.8,0.7c1.4,0,2.5-0.4,3.4-1.1c0.8-0.7,1.2-1.7,1.2-3v-3.1c-0.4,0.8-1,1.5-2,2
		c-0.9,0.5-2,0.8-3.2,0.8c-0.9,0-1.8-0.2-2.6-0.5c-0.8-0.3-1.5-0.8-2-1.4c-0.5-0.6-0.9-1.2-1.2-2c-0.3-0.8-0.4-1.5-0.4-2.4
		c0-0.8,0.1-1.6,0.4-2.4c0.3-0.8,0.7-1.4,1.2-2c0.5-0.6,1.2-1,2-1.4c0.8-0.3,1.7-0.5,2.6-0.5c1.2,0,2.3,0.3,3.2,0.8
		c0.9,0.6,1.6,1.3,1.9,2.1v-2.6H230.1z M218.8,172.1c0,1.3,0.4,2.4,1.3,3.3c0.8,0.9,2,1.3,3.4,1.3c0.6,0,1.2-0.1,1.8-0.3
		c0.6-0.2,1.1-0.5,1.5-0.9c0.4-0.4,0.8-0.9,1.1-1.5c0.3-0.6,0.4-1.2,0.4-1.9c0-0.9-0.2-1.7-0.7-2.5c-0.5-0.7-1-1.3-1.8-1.6
		c-0.7-0.4-1.5-0.5-2.3-0.5c-1.4,0-2.5,0.4-3.4,1.3C219.2,169.6,218.8,170.7,218.8,172.1z"/>
	<path class="st0" d="M242.6,173.1v5.5h-2v-17.8h6.5c0.9,0,1.8,0.2,2.6,0.5c0.8,0.3,1.5,0.8,2,1.3c0.5,0.6,1,1.2,1.3,1.9
		c0.3,0.7,0.5,1.5,0.5,2.3c0,1.1-0.3,2.1-0.8,3c-0.5,0.9-1.3,1.7-2.3,2.3c-1,0.6-2.1,0.9-3.3,0.9H242.6z M246.8,171.3
		c0.9,0,1.8-0.2,2.5-0.6c0.7-0.4,1.2-1,1.6-1.6c0.3-0.7,0.5-1.4,0.5-2.1c0-0.8-0.2-1.5-0.5-2.1c-0.3-0.6-0.9-1.2-1.6-1.6
		c-0.7-0.4-1.5-0.6-2.5-0.6h-4.2v8.7H246.8z"/>
	<path class="st0" d="M264.3,178.4c-0.9,0.4-1.8,0.5-2.8,0.5c-1,0-1.9-0.2-2.8-0.5c-0.9-0.4-1.6-0.8-2.1-1.5c-0.6-0.6-1-1.3-1.3-2.1
		c-0.3-0.8-0.5-1.6-0.5-2.5c0-1.2,0.3-2.2,0.8-3.2c0.5-1,1.3-1.8,2.4-2.4c1-0.6,2.2-0.9,3.6-0.9c1.3,0,2.5,0.3,3.6,0.9
		c1,0.6,1.8,1.4,2.4,2.4c0.5,1,0.8,2.1,0.8,3.2c0,0.9-0.2,1.7-0.5,2.5c-0.3,0.8-0.8,1.5-1.3,2.1C265.9,177.5,265.2,178,264.3,178.4z
		 M261.5,167.5c-1,0-1.8,0.2-2.6,0.7c-0.7,0.5-1.3,1.1-1.7,1.8c-0.4,0.7-0.6,1.5-0.6,2.4s0.2,1.7,0.6,2.4c0.4,0.7,0.9,1.3,1.7,1.8
		c0.7,0.5,1.6,0.7,2.6,0.7c1,0,1.8-0.2,2.6-0.7c0.7-0.5,1.3-1.1,1.7-1.8c0.4-0.7,0.6-1.5,0.6-2.4s-0.2-1.7-0.6-2.4
		c-0.4-0.7-0.9-1.3-1.7-1.8C263.4,167.7,262.5,167.5,261.5,167.5z"/>
	<path class="st0" d="M272.3,175.1c0.1,0.8,0.5,1.4,1,1.8c0.5,0.4,1.2,0.6,2.1,0.6c0.8,0,1.5-0.2,2-0.6c0.5-0.4,0.8-0.9,0.8-1.6
		c0-0.5-0.2-0.9-0.5-1.3c-0.3-0.3-0.8-0.6-1.4-0.8l-2-0.6c-2.1-0.6-3.2-1.7-3.2-3.4c0-1,0.4-1.8,1.2-2.5c0.8-0.6,1.8-0.9,3-0.9
		c1.2,0,2.2,0.3,2.9,0.9c0.7,0.6,1.1,1.5,1.3,2.6h-1.7c-0.1-0.6-0.3-1.1-0.7-1.5c-0.4-0.4-1-0.6-1.7-0.6c-0.7,0-1.3,0.2-1.7,0.5
		c-0.4,0.3-0.6,0.8-0.6,1.4c0,0.5,0.1,0.9,0.4,1.2c0.3,0.2,0.8,0.5,1.5,0.7l2.3,0.7c1,0.3,1.7,0.7,2.2,1.3c0.5,0.5,0.7,1.3,0.7,2.1
		c0,1.1-0.5,2-1.4,2.8c-0.9,0.7-2,1.1-3.3,1.1c-1.3,0-2.4-0.3-3.2-1c-0.9-0.7-1.4-1.6-1.6-2.9H272.3z"/>
	<path class="st0" d="M283.8,175.1c0.1,0.8,0.5,1.4,1,1.8c0.5,0.4,1.2,0.6,2.1,0.6c0.8,0,1.5-0.2,2-0.6c0.5-0.4,0.8-0.9,0.8-1.6
		c0-0.5-0.2-0.9-0.5-1.3c-0.3-0.3-0.8-0.6-1.4-0.8l-2-0.6c-2.1-0.6-3.2-1.7-3.2-3.4c0-1,0.4-1.8,1.2-2.5c0.8-0.6,1.8-0.9,3-0.9
		c1.2,0,2.2,0.3,2.9,0.9c0.7,0.6,1.1,1.5,1.3,2.6h-1.7c-0.1-0.6-0.3-1.1-0.7-1.5c-0.4-0.4-1-0.6-1.7-0.6c-0.7,0-1.3,0.2-1.7,0.5
		c-0.4,0.3-0.6,0.8-0.6,1.4c0,0.5,0.1,0.9,0.4,1.2c0.3,0.2,0.8,0.5,1.5,0.7l2.3,0.7c1,0.3,1.7,0.7,2.2,1.3c0.5,0.5,0.7,1.3,0.7,2.1
		c0,1.1-0.5,2-1.4,2.8c-0.9,0.7-2,1.1-3.3,1.1c-1.3,0-2.4-0.3-3.2-1c-0.9-0.7-1.4-1.6-1.6-2.9H283.8z"/>
	<path class="st0" d="M294.7,162.7c-0.2-0.2-0.4-0.5-0.4-0.9c0-0.4,0.1-0.7,0.4-0.9c0.2-0.2,0.6-0.4,0.9-0.4s0.7,0.1,0.9,0.4
		s0.4,0.5,0.4,0.9c0,0.4-0.1,0.7-0.4,0.9c-0.2,0.2-0.6,0.4-0.9,0.4S295,163,294.7,162.7z M294.7,178.6v-12.5h2v12.5H294.7z"/>
	<path class="st0" d="M302.8,168.6c0.4-0.8,1-1.5,1.9-2c0.9-0.6,2-0.8,3.2-0.8c1.3,0,2.4,0.3,3.4,0.9c1,0.6,1.7,1.4,2.3,2.4
		c0.5,1,0.8,2.1,0.8,3.2c0,1.2-0.3,2.2-0.8,3.2c-0.5,1-1.3,1.8-2.3,2.4c-1,0.6-2.1,0.9-3.4,0.9c-1.2,0-2.3-0.3-3.2-0.8
		c-0.9-0.6-1.6-1.2-2-2v2.5h-1.9v-18.6h2V168.6z M311.1,175.9c0.9-1,1.3-2.1,1.3-3.5c0-1.4-0.4-2.5-1.3-3.5c-0.9-1-2-1.4-3.4-1.4
		c-0.6,0-1.2,0.1-1.8,0.3c-0.6,0.2-1.1,0.5-1.5,0.9c-0.5,0.4-0.8,0.9-1.1,1.6c-0.3,0.6-0.4,1.3-0.4,2.1c0,1,0.2,1.9,0.7,2.7
		c0.5,0.8,1.1,1.3,1.8,1.7s1.5,0.6,2.3,0.6C309,177.3,310.2,176.8,311.1,175.9z"/>
	<path class="st0" d="M317.7,162.7c-0.2-0.2-0.4-0.5-0.4-0.9c0-0.4,0.1-0.7,0.4-0.9c0.2-0.2,0.6-0.4,0.9-0.4s0.7,0.1,0.9,0.4
		c0.2,0.2,0.4,0.5,0.4,0.9c0,0.4-0.1,0.7-0.4,0.9c-0.2,0.2-0.6,0.4-0.9,0.4S317.9,163,317.7,162.7z M317.6,178.6v-12.5h2v12.5H317.6
		z"/>
	<path class="st0" d="M323.7,178.6v-18.6h2v18.6H323.7z"/>
	<path class="st0" d="M329.9,162.7c-0.2-0.2-0.4-0.5-0.4-0.9c0-0.4,0.1-0.7,0.4-0.9c0.2-0.2,0.6-0.4,0.9-0.4s0.7,0.1,0.9,0.4
		c0.2,0.2,0.4,0.5,0.4,0.9c0,0.4-0.1,0.7-0.4,0.9c-0.2,0.2-0.6,0.4-0.9,0.4S330.1,163,329.9,162.7z M329.8,178.6v-12.5h2v12.5H329.8
		z"/>
	<path class="st0" d="M337,162.1h2v4h3.8v1.7H339v7c0,0.9,0.2,1.5,0.5,1.9c0.3,0.4,0.9,0.6,1.7,0.6c0.4,0,0.9-0.1,1.5-0.2v1.6
		c-0.5,0.2-1.1,0.3-1.9,0.3c-0.7,0-1.3-0.1-1.8-0.3c-0.5-0.2-0.9-0.5-1.1-1c-0.3-0.4-0.5-0.9-0.6-1.5c-0.1-0.6-0.2-1.2-0.2-2v-6.4
		h-2.6v-1.7h2.6V162.1z"/>
	<path class="st0" d="M345.7,162.7c-0.2-0.2-0.4-0.5-0.4-0.9c0-0.4,0.1-0.7,0.4-0.9c0.2-0.2,0.6-0.4,0.9-0.4s0.7,0.1,0.9,0.4
		c0.2,0.2,0.4,0.5,0.4,0.9c0,0.4-0.1,0.7-0.4,0.9c-0.2,0.2-0.6,0.4-0.9,0.4S346,163,345.7,162.7z M345.7,178.6v-12.5h2v12.5H345.7z"
		/>
	<path class="st0" d="M352.8,173.2c0.2,1.3,0.6,2.3,1.5,3.1c0.8,0.7,1.9,1.1,3.2,1.1c0.9,0,1.8-0.2,2.5-0.6c0.7-0.4,1.3-0.9,1.7-1.5
		h1.9c-0.5,1.1-1.3,1.9-2.4,2.6c-1.1,0.7-2.3,1-3.7,1c-1.3,0-2.5-0.3-3.5-0.9c-1-0.6-1.8-1.4-2.3-2.4c-0.5-1-0.8-2.1-0.8-3.3
		c0-1.2,0.3-2.3,0.8-3.3c0.6-1,1.3-1.8,2.3-2.4s2.1-0.9,3.4-0.9c1.3,0,2.4,0.3,3.4,0.9c1,0.6,1.7,1.3,2.3,2.3c0.5,1,0.8,2.1,0.8,3.3
		v0.9H352.8z M357.4,167.3c-1.3,0-2.3,0.4-3.2,1.2c-0.8,0.8-1.3,1.9-1.5,3.2h9.2c-0.1-1.3-0.6-2.3-1.4-3.2
		C359.8,167.7,358.8,167.3,357.4,167.3z"/>
	<path class="st0" d="M367.8,175.1c0.1,0.8,0.5,1.4,1,1.8c0.5,0.4,1.2,0.6,2.1,0.6c0.8,0,1.5-0.2,2-0.6c0.5-0.4,0.8-0.9,0.8-1.6
		c0-0.5-0.2-0.9-0.5-1.3c-0.3-0.3-0.8-0.6-1.4-0.8l-2-0.6c-2.1-0.6-3.2-1.7-3.2-3.4c0-1,0.4-1.8,1.2-2.5c0.8-0.6,1.8-0.9,3-0.9
		c1.2,0,2.2,0.3,2.9,0.9c0.7,0.6,1.1,1.5,1.3,2.6h-1.7c-0.1-0.6-0.3-1.1-0.7-1.5c-0.4-0.4-1-0.6-1.7-0.6c-0.7,0-1.3,0.2-1.7,0.5
		c-0.4,0.3-0.6,0.8-0.6,1.4c0,0.5,0.1,0.9,0.4,1.2c0.3,0.2,0.8,0.5,1.5,0.7l2.3,0.7c1,0.3,1.7,0.7,2.2,1.3c0.5,0.5,0.7,1.3,0.7,2.1
		c0,1.1-0.5,2-1.4,2.8c-0.9,0.7-2,1.1-3.3,1.1c-1.3,0-2.4-0.3-3.2-1c-0.9-0.7-1.4-1.6-1.6-2.9H367.8z"/>
</g>
</svg>
